<svg width="282" height="121" viewBox="0 0 282 121" fill="none" xmlns="http://www.w3.org/2000/svg">
<path d="M31.7273 94H0.181818V0.909088H32.3636C41.6061 0.909088 49.5455 2.77273 56.1818 6.5C62.8485 10.197 67.9697 15.5151 71.5455 22.4545C75.1212 29.3939 76.9091 37.697 76.9091 47.3636C76.9091 57.0606 75.1061 65.3939 71.5 72.3636C67.9242 79.3333 62.7576 84.6818 56 88.4091C49.2727 92.1364 41.1818 94 31.7273 94ZM17.0455 79.4091H30.9091C37.3939 79.4091 42.803 78.2273 47.1364 75.8636C51.4697 73.4697 54.7273 69.9091 56.9091 65.1818C59.0909 60.4242 60.1818 54.4848 60.1818 47.3636C60.1818 40.2424 59.0909 34.3333 56.9091 29.6364C54.7273 24.9091 51.5 21.3788 47.2273 19.0455C42.9848 16.6818 37.7121 15.5 31.4091 15.5H17.0455V79.4091ZM136.705 64.6364V24.1818H153.159V94H137.205V81.5909H136.477C134.902 85.5 132.311 88.697 128.705 91.1818C125.129 93.6667 120.72 94.9091 115.477 94.9091C110.902 94.9091 106.856 93.8939 103.341 91.8636C99.8561 89.803 97.1288 86.8182 95.1591 82.9091C93.1894 78.9697 92.2045 74.2121 92.2045 68.6364V24.1818H108.659V66.0909C108.659 70.5152 109.871 74.0303 112.295 76.6364C114.72 79.2424 117.902 80.5455 121.841 80.5455C124.265 80.5455 126.614 79.9545 128.886 78.7727C131.159 77.5909 133.023 75.8333 134.477 73.5C135.962 71.1364 136.705 68.1818 136.705 64.6364ZM204.943 24.1818V36.9091H164.807V24.1818H204.943ZM174.716 7.45454H191.17V73C191.17 75.2121 191.504 76.9091 192.17 78.0909C192.867 79.2424 193.777 80.0303 194.898 80.4545C196.019 80.8788 197.261 81.0909 198.625 81.0909C199.655 81.0909 200.595 81.0152 201.443 80.8636C202.322 80.7121 202.989 80.5758 203.443 80.4545L206.216 93.3182C205.337 93.6212 204.08 93.9545 202.443 94.3182C200.837 94.6818 198.867 94.8939 196.534 94.9545C192.413 95.0758 188.701 94.4545 185.398 93.0909C182.095 91.697 179.473 89.5455 177.534 86.6364C175.625 83.7273 174.686 80.0909 174.716 75.7273V7.45454ZM228.932 120.182C226.689 120.182 224.614 120 222.705 119.636C220.826 119.303 219.326 118.909 218.205 118.455L222.023 105.636C224.417 106.333 226.553 106.667 228.432 106.636C230.311 106.606 231.962 106.015 233.386 104.864C234.841 103.742 236.068 101.864 237.068 99.2273L238.477 95.4545L213.159 24.1818H230.614L246.705 76.9091H247.432L263.568 24.1818H281.068L253.114 102.455C251.811 106.152 250.083 109.318 247.932 111.955C245.78 114.621 243.144 116.652 240.023 118.045C236.932 119.47 233.235 120.182 228.932 120.182Z" fill="black"/>
</svg>
